<svg id="SvgjsSvg1001" width="288" height="288" xmlns="http://www.w3.org/2000/svg" version="1.1" xmlns:xlink="http://www.w3.org/1999/xlink" xmlns:svgjs="http://svgjs.com/svgjs"><defs id="SvgjsDefs1002"></defs><g id="SvgjsG1008"><svg xmlns="http://www.w3.org/2000/svg" class="svg-icon" style="width:1em;height:1em;vertical-align:middle" fill="currentColor" overflow="hidden" viewBox="0 0 1024 1024" width="288" height="288"><path d="M348 128h-117.6C156.2 128 96 188.2 96 262.4V380c0 15.4 12.6 28 28 28s28-12.6 28-28v-119.6c0-18.2 8.6-37.4 23.4-52.4 15-15.2 34.4-24 53-24H348c15.4 0 28-12.6 28-28s-12.6-28-28-28z m447.6 0H676c-15.4 0-28 12.6-28 28s12.6 28 28 28h119.6c18.6 0 38 8.8 53 24 14.8 15 23.4 34.2 23.4 52.4V380c0 15.4 12.6 28 28 28s28-12.6 28-28v-119.6c0-73-59.4-132.4-132.4-132.4zM348 840h-119.6c-18.6 0-38-8.8-53-24-14.8-15-23.4-34.2-23.4-52.4V644c0-15.4-12.6-28-28-28s-28 12.6-28 28v119.6c0 73 59.4 132.4 132.4 132.4H348c15.4 0 28-12.6 28-28s-12.6-28-28-28z m552-224c-15.4 0-28 12.6-28 28v119.6c0 18.2-8.6 37.4-23.4 52.4-15 15.2-34.4 24-53 24H676c-15.4 0-28 12.6-28 28s12.6 28 28 28h117.6c74 0 134.4-60.2 134.4-134.4V644c0-15.4-12.6-28-28-28z" fill="#eeeeee" class="color000 svgShape"></path></svg></g></svg>