<?xml version="1.0" encoding="UTF-8"?>
<svg version="1.1" xmlns="http://www.w3.org/2000/svg" width="584" height="584">
<path d="M0 0 C3.96 0 7.92 0 12 0 C12 0.66 12 1.32 12 2 C13.32 2 14.64 2 16 2 C16.76645933 7.43264127 17.14491597 12.7231923 17.12939453 18.21337891 C17.13202301 19.38108826 17.13202301 19.38108826 17.13470459 20.5723877 C17.13907383 23.12380258 17.13620082 25.67514701 17.1328125 28.2265625 C17.13348736 30.02005018 17.13445891 31.81353777 17.13571167 33.60702515 C17.13718233 37.36090976 17.13505593 41.11477051 17.13037109 44.86865234 C17.12469899 49.64253474 17.12794081 54.41636058 17.13394356 59.19024086 C17.13758747 62.89493217 17.13639272 66.59961048 17.13381577 70.30430222 C17.13315576 72.06228009 17.13394194 73.8202592 17.13629532 75.57823563 C17.14694098 85.77177027 16.90872343 95.83926735 16 106 C15.34 106 14.68 106 14 106 C14 107.98 14 109.96 14 112 C13.34 112 12.68 112 12 112 C12 113.32 12 114.64 12 116 C11.34 116 10.68 116 10 116 C10 117.32 10 118.64 10 120 C9.34 120 8.68 120 8 120 C8 121.32 8 122.64 8 124 C7.34 124 6.68 124 6 124 C6 124.66 6 125.32 6 126 C5.34 126 4.68 126 4 126 C4 126.66 4 127.32 4 128 C3.34 128 2.68 128 2 128 C2 128.66 2 129.32 2 130 C1.34 130 0.68 130 0 130 C0 130.66 0 131.32 0 132 C-0.66 132 -1.32 132 -2 132 C-2 132.66 -2 133.32 -2 134 C-3.32 134 -4.64 134 -6 134 C-6 134.66 -6 135.32 -6 136 C-7.32 136 -8.64 136 -10 136 C-10 136.66 -10 137.32 -10 138 C-10.66 138 -11.32 138 -12 138 C-12 138.66 -12 139.32 -12 140 C-13.98 140 -15.96 140 -18 140 C-18 140.66 -18 141.32 -18 142 C-21.3 142 -24.6 142 -28 142 C-28 142.66 -28 143.32 -28 144 C-50.44 144 -72.88 144 -96 144 C-96 143.34 -96 142.68 -96 142 C-96.66 142 -97.32 142 -98 142 C-98 140.68 -98 139.36 -98 138 C-98.66 138 -99.32 138 -100 138 C-100 135.36 -100 132.72 -100 130 C-99.34 130 -98.68 130 -98 130 C-98 128.68 -98 127.36 -98 126 C-74.9 126 -51.8 126 -28 126 C-28 125.34 -28 124.68 -28 124 C-25.36 124 -22.72 124 -20 124 C-20 123.34 -20 122.68 -20 122 C-18.68 122 -17.36 122 -16 122 C-16 121.34 -16 120.68 -16 120 C-15.34 120 -14.68 120 -14 120 C-14 119.34 -14 118.68 -14 118 C-12.68 118 -11.36 118 -10 118 C-10 117.34 -10 116.68 -10 116 C-9.34 116 -8.68 116 -8 116 C-8 114.68 -8 113.36 -8 112 C-7.34 112 -6.68 112 -6 112 C-6 110.68 -6 109.36 -6 108 C-5.34 108 -4.68 108 -4 108 C-4 106.02 -4 104.04 -4 102 C-3.34 102 -2.68 102 -2 102 C-2 69 -2 36 -2 2 C-1.34 2 -0.68 2 0 2 C0 1.34 0 0.68 0 0 Z " fill="#EFEFF0" transform="translate(567,440)"/>
<path d="M0 0 C24.42 0 48.84 0 74 0 C74 0.66 74 1.32 74 2 C75.98 2 77.96 2 80 2 C80 2.66 80 3.32 80 4 C81.32 4 82.64 4 84 4 C84 4.66 84 5.32 84 6 C85.32 6 86.64 6 88 6 C88 6.66 88 7.32 88 8 C88.66 8 89.32 8 90 8 C90 8.66 90 9.32 90 10 C91.32 10 92.64 10 94 10 C94 10.66 94 11.32 94 12 C94.66 12 95.32 12 96 12 C96 12.66 96 13.32 96 14 C96.66 14 97.32 14 98 14 C98 14.66 98 15.32 98 16 C98.66 16 99.32 16 100 16 C100 16.66 100 17.32 100 18 C100.66 18 101.32 18 102 18 C102 19.32 102 20.64 102 22 C102.66 22 103.32 22 104 22 C104 22.66 104 23.32 104 24 C104.66 24 105.32 24 106 24 C106 25.32 106 26.64 106 28 C106.66 28 107.32 28 108 28 C108 29.32 108 30.64 108 32 C108.66 32 109.32 32 110 32 C110 34.64 110 37.28 110 40 C110.66 40 111.32 40 112 40 C112.1537763 52.70846371 112.30195781 65.41697908 112.4429636 78.12559128 C112.50861214 84.02647223 112.57619996 89.92731778 112.64819336 95.828125 C112.71757801 101.52092325 112.78190303 107.21375809 112.84269524 112.90665436 C112.86680208 115.08041719 112.89274323 117.25416048 112.92053413 119.42787933 C112.9590973 122.46849001 112.99118416 125.50910437 113.02172852 128.54980469 C113.03467453 129.45179596 113.04762054 130.35378723 113.06095886 131.28311157 C113.0715181 132.5282402 113.0715181 132.5282402 113.08229065 133.79852295 C113.09058679 134.51752148 113.09888292 135.23652 113.10743046 135.97730637 C112.99483189 138.09730489 112.58039954 139.96225785 112 142 C109.36 142 106.72 142 104 142 C104 142.66 104 143.32 104 144 C102.02 144 100.04 144 98 144 C98 143.34 98 142.68 98 142 C97.34 142 96.68 142 96 142 C96 141.34 96 140.68 96 140 C95.34 140 94.68 140 94 140 C94 107.66 94 75.32 94 42 C93.34 42 92.68 42 92 42 C92 40.02 92 38.04 92 36 C91.34 36 90.68 36 90 36 C90 34.68 90 33.36 90 32 C89.34 32 88.68 32 88 32 C88 31.34 88 30.68 88 30 C87.34 30 86.68 30 86 30 C86 28.68 86 27.36 86 26 C84.68 26 83.36 26 82 26 C82 25.34 82 24.68 82 24 C81.34 24 80.68 24 80 24 C80 23.34 80 22.68 80 22 C78.68 22 77.36 22 76 22 C76 21.34 76 20.68 76 20 C74.02 20 72.04 20 70 20 C70 19.34 70 18.68 70 18 C46.9 18 23.8 18 0 18 C0 17.34 0 16.68 0 16 C-0.66 16 -1.32 16 -2 16 C-2 15.34 -2 14.68 -2 14 C-2.66 14 -3.32 14 -4 14 C-4 11.36 -4 8.72 -4 6 C-3.34 6 -2.68 6 -2 6 C-2 4.68 -2 3.36 -2 2 C-1.34 2 -0.68 2 0 2 C0 1.34 0 0.68 0 0 Z " fill="#EFEFF0" transform="translate(471,0)"/>
<path d="M0 0 C25.08 0 50.16 0 76 0 C76 1.32 76 2.64 76 4 C76.66 4 77.32 4 78 4 C78 7.96 78 11.92 78 16 C77.34 16 76.68 16 76 16 C76 16.66 76 17.32 76 18 C52.24 18 28.48 18 4 18 C4 18.66 4 19.32 4 20 C2.02 20 0.04 20 -2 20 C-2 20.66 -2 21.32 -2 22 C-3.32 22 -4.64 22 -6 22 C-6 22.66 -6 23.32 -6 24 C-6.66 24 -7.32 24 -8 24 C-8 24.66 -8 25.32 -8 26 C-8.66 26 -9.32 26 -10 26 C-10 26.66 -10 27.32 -10 28 C-10.66 28 -11.32 28 -12 28 C-12 28.66 -12 29.32 -12 30 C-12.66 30 -13.32 30 -14 30 C-14 30.66 -14 31.32 -14 32 C-14.66 32 -15.32 32 -16 32 C-16 33.32 -16 34.64 -16 36 C-16.66 36 -17.32 36 -18 36 C-18 37.98 -18 39.96 -18 42 C-18.66 42 -19.32 42 -20 42 C-20 75 -20 108 -20 142 C-21.32 142 -22.64 142 -24 142 C-24 142.66 -24 143.32 -24 144 C-27.3 144 -30.6 144 -34 144 C-34 143.34 -34 142.68 -34 142 C-34.99 142 -35.98 142 -37 142 C-37.02317096 128.54371188 -37.04093938 115.08742851 -37.05181217 101.6311245 C-37.05703057 95.38281932 -37.06410935 89.13452779 -37.07543945 82.88623047 C-37.08630531 76.85621634 -37.0922847 70.82621534 -37.09487724 64.79619217 C-37.09672481 62.49571145 -37.10033261 60.19523145 -37.10573006 57.89475632 C-37.1129895 54.67249753 -37.11398886 51.45029299 -37.11352539 48.22802734 C-37.11712067 47.27712219 -37.12071594 46.32621704 -37.12442017 45.34649658 C-37.11731453 40.78061671 -36.93803688 36.49269227 -36 32 C-35.34 32 -34.68 32 -34 32 C-34 30.68 -34 29.36 -34 28 C-33.34 28 -32.68 28 -32 28 C-32 26.68 -32 25.36 -32 24 C-31.34 24 -30.68 24 -30 24 C-30 23.34 -30 22.68 -30 22 C-29.34 22 -28.68 22 -28 22 C-28 20.68 -28 19.36 -28 18 C-27.34 18 -26.68 18 -26 18 C-26 17.34 -26 16.68 -26 16 C-25.34 16 -24.68 16 -24 16 C-24 15.34 -24 14.68 -24 14 C-23.34 14 -22.68 14 -22 14 C-22 13.34 -22 12.68 -22 12 C-21.34 12 -20.68 12 -20 12 C-20 11.34 -20 10.68 -20 10 C-18.68 10 -17.36 10 -16 10 C-16 9.34 -16 8.68 -16 8 C-15.34 8 -14.68 8 -14 8 C-14 7.34 -14 6.68 -14 6 C-12.68 6 -11.36 6 -10 6 C-10 5.34 -10 4.68 -10 4 C-8.68 4 -7.36 4 -6 4 C-6 3.34 -6 2.68 -6 2 C-4.02 2 -2.04 2 0 2 C0 1.34 0 0.68 0 0 Z " fill="#F0F0F1" transform="translate(37,0)"/>
<path d="M0 0 C3.96 0 7.92 0 12 0 C12 0.66 12 1.32 12 2 C12.66 2 13.32 2 14 2 C14 35 14 68 14 102 C14.66 102 15.32 102 16 102 C16 103.98 16 105.96 16 108 C16.66 108 17.32 108 18 108 C18 109.32 18 110.64 18 112 C18.66 112 19.32 112 20 112 C20 113.32 20 114.64 20 116 C20.66 116 21.32 116 22 116 C22 116.66 22 117.32 22 118 C23.32 118 24.64 118 26 118 C26 118.66 26 119.32 26 120 C26.66 120 27.32 120 28 120 C28 120.66 28 121.32 28 122 C29.32 122 30.64 122 32 122 C32 122.66 32 123.32 32 124 C33.98 124 35.96 124 38 124 C38 124.66 38 125.32 38 126 C61.76 126 85.52 126 110 126 C110 126.66 110 127.32 110 128 C110.66 128 111.32 128 112 128 C112 131.96 112 135.92 112 140 C111.34 140 110.68 140 110 140 C110 140.66 110 141.32 110 142 C109.34 142 108.68 142 108 142 C108 142.66 108 143.32 108 144 C86.22 144 64.44 144 42 144 C42 143.34 42 142.68 42 142 C38.04 142 34.08 142 30 142 C30 141.34 30 140.68 30 140 C28.68 140 27.36 140 26 140 C26 139.34 26 138.68 26 138 C24.68 138 23.36 138 22 138 C22 137.34 22 136.68 22 136 C20.68 136 19.36 136 18 136 C18 135.34 18 134.68 18 134 C17.34 134 16.68 134 16 134 C16 133.34 16 132.68 16 132 C14.68 132 13.36 132 12 132 C12 131.34 12 130.68 12 130 C11.34 130 10.68 130 10 130 C10 129.34 10 128.68 10 128 C9.34 128 8.68 128 8 128 C8 127.34 8 126.68 8 126 C7.34 126 6.68 126 6 126 C6 124.68 6 123.36 6 122 C5.34 122 4.68 122 4 122 C4 121.34 4 120.68 4 120 C3.34 120 2.68 120 2 120 C2 118.68 2 117.36 2 116 C1.34 116 0.68 116 0 116 C0 114.68 0 113.36 0 112 C-0.66 112 -1.32 112 -2 112 C-3.13534637 106.5623014 -3.13441718 101.29758716 -3.11352539 95.77197266 C-3.11367142 94.75672516 -3.11381744 93.74147766 -3.1139679 92.69546509 C-3.11327321 89.35164222 -3.10550161 86.00787559 -3.09765625 82.6640625 C-3.09579049 80.34093252 -3.09436733 78.01780215 -3.09336853 75.69467163 C-3.08955578 69.58895781 -3.07973609 63.48326788 -3.06866455 57.37756348 C-3.05842373 51.14363936 -3.05386519 44.90971136 -3.04882812 38.67578125 C-3.03811271 26.45051035 -3.0210512 14.22525716 -3 2 C-2.01 2 -1.02 2 0 2 C0 1.34 0 0.68 0 0 Z " fill="#EFF0F1" transform="translate(3,440)"/>
<path d="M0 0 C0.79869066 31.70521072 1.17410855 63.30173139 0 95 C-0.66 94.67 -1.32 94.34 -2 94 C-2 63.97 -2 33.94 -2 3 C-2.66 3 -3.32 3 -4 3 C-4 2.34 -4 1.68 -4 1 C-1 0 -1 0 0 0 Z " fill="#F5F8FC" transform="translate(567,39)"/>
<path d="M0 0 C0.99 0 1.98 0 3 0 C3 1.32 3 2.64 3 4 C2.34 4 1.68 4 1 4 C1 10.27 1 16.54 1 23 C0.67 23 0.34 23 0 23 C0 15.41 0 7.82 0 0 Z " fill="#F7F7FA" transform="translate(581,446)"/>
<path d="M0 0 C1.32 0 2.64 0 4 0 C3.34 1.65 2.68 3.3 2 5 C0.68 5 -0.64 5 -2 5 C-2 4.01 -2 3.02 -2 2 C-1.34 2 -0.68 2 0 2 C0 1.34 0 0.68 0 0 Z " fill="#DFDEE7" transform="translate(11,16)"/>
</svg>
